<?xml version="1.0" encoding="utf-8" standalone="no"?>
<!DOCTYPE svg PUBLIC "-//W3C//DTD SVG 1.1//EN"
  "http://www.w3.org/Graphics/SVG/1.1/DTD/svg11.dtd">
<svg height="488.73105pt" version="1.1" viewBox="0 0 467.375306 488.73105" width="467.375306pt" xmlns="http://www.w3.org/2000/svg" xmlns:xlink="http://www.w3.org/1999/xlink">
 <metadata>
  <rdf:RDF xmlns:cc="http://creativecommons.org/ns#" xmlns:dc="http://purl.org/dc/elements/1.1/" xmlns:rdf="http://www.w3.org/1999/02/22-rdf-syntax-ns#">
   <cc:Work>
    <dc:type rdf:resource="http://purl.org/dc/dcmitype/StillImage"/>
    <dc:date>2022-01-19T19:20:05.931268</dc:date>
    <dc:format>image/svg+xml</dc:format>
    <dc:creator>
     <cc:Agent>
      <dc:title>Matplotlib v3.4.3, https://matplotlib.org/</dc:title>
     </cc:Agent>
    </dc:creator>
   </cc:Work>
  </rdf:RDF>
 </metadata>
 <defs>
  <style type="text/css">*{stroke-linecap:butt;stroke-linejoin:round;}</style>
 </defs>
 <g id="figure_1">
  <g id="patch_1">
   <path d="M 0 488.73105 
L 467.375306 488.73105 
L 467.375306 0 
L 0 0 
z
" style="fill:#ffffff;"/>
  </g>
  <g id="axes_1">
   <g id="patch_2">
    <path d="M 83.584641 481.53105 
L 418.384641 481.53105 
L 418.384641 38.01105 
L 83.584641 38.01105 
z
" style="fill:#ffffff;"/>
   </g>
   <g id="matplotlib.axis_1"/>
   <g id="matplotlib.axis_2">
    <g id="ytick_1">
     <g id="text_1">
      <!-- January -->
      <g style="fill:#262626;" transform="translate(28.212406 61.088105)scale(0.121 -0.121)">
       <defs>
        <path d="M 628 4666 
L 1259 4666 
L 1259 325 
Q 1259 -519 939 -900 
Q 619 -1281 -91 -1281 
L -331 -1281 
L -331 -750 
L -134 -750 
Q 284 -750 456 -515 
Q 628 -281 628 325 
L 628 4666 
z
" id="DejaVuSans-4a" transform="scale(0.015625)"/>
        <path d="M 2194 1759 
Q 1497 1759 1228 1600 
Q 959 1441 959 1056 
Q 959 750 1161 570 
Q 1363 391 1709 391 
Q 2188 391 2477 730 
Q 2766 1069 2766 1631 
L 2766 1759 
L 2194 1759 
z
M 3341 1997 
L 3341 0 
L 2766 0 
L 2766 531 
Q 2569 213 2275 61 
Q 1981 -91 1556 -91 
Q 1019 -91 701 211 
Q 384 513 384 1019 
Q 384 1609 779 1909 
Q 1175 2209 1959 2209 
L 2766 2209 
L 2766 2266 
Q 2766 2663 2505 2880 
Q 2244 3097 1772 3097 
Q 1472 3097 1187 3025 
Q 903 2953 641 2809 
L 641 3341 
Q 956 3463 1253 3523 
Q 1550 3584 1831 3584 
Q 2591 3584 2966 3190 
Q 3341 2797 3341 1997 
z
" id="DejaVuSans-61" transform="scale(0.015625)"/>
        <path d="M 3513 2113 
L 3513 0 
L 2938 0 
L 2938 2094 
Q 2938 2591 2744 2837 
Q 2550 3084 2163 3084 
Q 1697 3084 1428 2787 
Q 1159 2491 1159 1978 
L 1159 0 
L 581 0 
L 581 3500 
L 1159 3500 
L 1159 2956 
Q 1366 3272 1645 3428 
Q 1925 3584 2291 3584 
Q 2894 3584 3203 3211 
Q 3513 2838 3513 2113 
z
" id="DejaVuSans-6e" transform="scale(0.015625)"/>
        <path d="M 544 1381 
L 544 3500 
L 1119 3500 
L 1119 1403 
Q 1119 906 1312 657 
Q 1506 409 1894 409 
Q 2359 409 2629 706 
Q 2900 1003 2900 1516 
L 2900 3500 
L 3475 3500 
L 3475 0 
L 2900 0 
L 2900 538 
Q 2691 219 2414 64 
Q 2138 -91 1772 -91 
Q 1169 -91 856 284 
Q 544 659 544 1381 
z
M 1991 3584 
L 1991 3584 
z
" id="DejaVuSans-75" transform="scale(0.015625)"/>
        <path d="M 2631 2963 
Q 2534 3019 2420 3045 
Q 2306 3072 2169 3072 
Q 1681 3072 1420 2755 
Q 1159 2438 1159 1844 
L 1159 0 
L 581 0 
L 581 3500 
L 1159 3500 
L 1159 2956 
Q 1341 3275 1631 3429 
Q 1922 3584 2338 3584 
Q 2397 3584 2469 3576 
Q 2541 3569 2628 3553 
L 2631 2963 
z
" id="DejaVuSans-72" transform="scale(0.015625)"/>
        <path d="M 2059 -325 
Q 1816 -950 1584 -1140 
Q 1353 -1331 966 -1331 
L 506 -1331 
L 506 -850 
L 844 -850 
Q 1081 -850 1212 -737 
Q 1344 -625 1503 -206 
L 1606 56 
L 191 3500 
L 800 3500 
L 1894 763 
L 2988 3500 
L 3597 3500 
L 2059 -325 
z
" id="DejaVuSans-79" transform="scale(0.015625)"/>
       </defs>
       <use xlink:href="#DejaVuSans-4a"/>
       <use x="29.492188" xlink:href="#DejaVuSans-61"/>
       <use x="90.771484" xlink:href="#DejaVuSans-6e"/>
       <use x="154.150391" xlink:href="#DejaVuSans-75"/>
       <use x="217.529297" xlink:href="#DejaVuSans-61"/>
       <use x="278.808594" xlink:href="#DejaVuSans-72"/>
       <use x="319.921875" xlink:href="#DejaVuSans-79"/>
      </g>
     </g>
    </g>
    <g id="ytick_2">
     <g id="text_2">
      <!-- February -->
      <g style="fill:#262626;" transform="translate(20.470297 98.048105)scale(0.121 -0.121)">
       <defs>
        <path d="M 628 4666 
L 3309 4666 
L 3309 4134 
L 1259 4134 
L 1259 2759 
L 3109 2759 
L 3109 2228 
L 1259 2228 
L 1259 0 
L 628 0 
L 628 4666 
z
" id="DejaVuSans-46" transform="scale(0.015625)"/>
        <path d="M 3597 1894 
L 3597 1613 
L 953 1613 
Q 991 1019 1311 708 
Q 1631 397 2203 397 
Q 2534 397 2845 478 
Q 3156 559 3463 722 
L 3463 178 
Q 3153 47 2828 -22 
Q 2503 -91 2169 -91 
Q 1331 -91 842 396 
Q 353 884 353 1716 
Q 353 2575 817 3079 
Q 1281 3584 2069 3584 
Q 2775 3584 3186 3129 
Q 3597 2675 3597 1894 
z
M 3022 2063 
Q 3016 2534 2758 2815 
Q 2500 3097 2075 3097 
Q 1594 3097 1305 2825 
Q 1016 2553 972 2059 
L 3022 2063 
z
" id="DejaVuSans-65" transform="scale(0.015625)"/>
        <path d="M 3116 1747 
Q 3116 2381 2855 2742 
Q 2594 3103 2138 3103 
Q 1681 3103 1420 2742 
Q 1159 2381 1159 1747 
Q 1159 1113 1420 752 
Q 1681 391 2138 391 
Q 2594 391 2855 752 
Q 3116 1113 3116 1747 
z
M 1159 2969 
Q 1341 3281 1617 3432 
Q 1894 3584 2278 3584 
Q 2916 3584 3314 3078 
Q 3713 2572 3713 1747 
Q 3713 922 3314 415 
Q 2916 -91 2278 -91 
Q 1894 -91 1617 61 
Q 1341 213 1159 525 
L 1159 0 
L 581 0 
L 581 4863 
L 1159 4863 
L 1159 2969 
z
" id="DejaVuSans-62" transform="scale(0.015625)"/>
       </defs>
       <use xlink:href="#DejaVuSans-46"/>
       <use x="52.019531" xlink:href="#DejaVuSans-65"/>
       <use x="113.542969" xlink:href="#DejaVuSans-62"/>
       <use x="177.019531" xlink:href="#DejaVuSans-72"/>
       <use x="218.132812" xlink:href="#DejaVuSans-75"/>
       <use x="281.511719" xlink:href="#DejaVuSans-61"/>
       <use x="342.791016" xlink:href="#DejaVuSans-72"/>
       <use x="383.904297" xlink:href="#DejaVuSans-79"/>
      </g>
     </g>
    </g>
    <g id="ytick_3">
     <g id="text_3">
      <!-- March -->
      <g style="fill:#262626;" transform="translate(37.206109 135.008105)scale(0.121 -0.121)">
       <defs>
        <path d="M 628 4666 
L 1569 4666 
L 2759 1491 
L 3956 4666 
L 4897 4666 
L 4897 0 
L 4281 0 
L 4281 4097 
L 3078 897 
L 2444 897 
L 1241 4097 
L 1241 0 
L 628 0 
L 628 4666 
z
" id="DejaVuSans-4d" transform="scale(0.015625)"/>
        <path d="M 3122 3366 
L 3122 2828 
Q 2878 2963 2633 3030 
Q 2388 3097 2138 3097 
Q 1578 3097 1268 2742 
Q 959 2388 959 1747 
Q 959 1106 1268 751 
Q 1578 397 2138 397 
Q 2388 397 2633 464 
Q 2878 531 3122 666 
L 3122 134 
Q 2881 22 2623 -34 
Q 2366 -91 2075 -91 
Q 1284 -91 818 406 
Q 353 903 353 1747 
Q 353 2603 823 3093 
Q 1294 3584 2113 3584 
Q 2378 3584 2631 3529 
Q 2884 3475 3122 3366 
z
" id="DejaVuSans-63" transform="scale(0.015625)"/>
        <path d="M 3513 2113 
L 3513 0 
L 2938 0 
L 2938 2094 
Q 2938 2591 2744 2837 
Q 2550 3084 2163 3084 
Q 1697 3084 1428 2787 
Q 1159 2491 1159 1978 
L 1159 0 
L 581 0 
L 581 4863 
L 1159 4863 
L 1159 2956 
Q 1366 3272 1645 3428 
Q 1925 3584 2291 3584 
Q 2894 3584 3203 3211 
Q 3513 2838 3513 2113 
z
" id="DejaVuSans-68" transform="scale(0.015625)"/>
       </defs>
       <use xlink:href="#DejaVuSans-4d"/>
       <use x="86.279297" xlink:href="#DejaVuSans-61"/>
       <use x="147.558594" xlink:href="#DejaVuSans-72"/>
       <use x="186.421875" xlink:href="#DejaVuSans-63"/>
       <use x="241.402344" xlink:href="#DejaVuSans-68"/>
      </g>
     </g>
    </g>
    <g id="ytick_4">
     <g id="text_4">
      <!-- April -->
      <g style="fill:#262626;" transform="translate(46.428578 171.968105)scale(0.121 -0.121)">
       <defs>
        <path d="M 2188 4044 
L 1331 1722 
L 3047 1722 
L 2188 4044 
z
M 1831 4666 
L 2547 4666 
L 4325 0 
L 3669 0 
L 3244 1197 
L 1141 1197 
L 716 0 
L 50 0 
L 1831 4666 
z
" id="DejaVuSans-41" transform="scale(0.015625)"/>
        <path d="M 1159 525 
L 1159 -1331 
L 581 -1331 
L 581 3500 
L 1159 3500 
L 1159 2969 
Q 1341 3281 1617 3432 
Q 1894 3584 2278 3584 
Q 2916 3584 3314 3078 
Q 3713 2572 3713 1747 
Q 3713 922 3314 415 
Q 2916 -91 2278 -91 
Q 1894 -91 1617 61 
Q 1341 213 1159 525 
z
M 3116 1747 
Q 3116 2381 2855 2742 
Q 2594 3103 2138 3103 
Q 1681 3103 1420 2742 
Q 1159 2381 1159 1747 
Q 1159 1113 1420 752 
Q 1681 391 2138 391 
Q 2594 391 2855 752 
Q 3116 1113 3116 1747 
z
" id="DejaVuSans-70" transform="scale(0.015625)"/>
        <path d="M 603 3500 
L 1178 3500 
L 1178 0 
L 603 0 
L 603 3500 
z
M 603 4863 
L 1178 4863 
L 1178 4134 
L 603 4134 
L 603 4863 
z
" id="DejaVuSans-69" transform="scale(0.015625)"/>
        <path d="M 603 4863 
L 1178 4863 
L 1178 0 
L 603 0 
L 603 4863 
z
" id="DejaVuSans-6c" transform="scale(0.015625)"/>
       </defs>
       <use xlink:href="#DejaVuSans-41"/>
       <use x="68.408203" xlink:href="#DejaVuSans-70"/>
       <use x="131.884766" xlink:href="#DejaVuSans-72"/>
       <use x="172.998047" xlink:href="#DejaVuSans-69"/>
       <use x="200.78125" xlink:href="#DejaVuSans-6c"/>
      </g>
     </g>
    </g>
    <g id="ytick_5">
     <g id="text_5">
      <!-- May -->
      <g style="fill:#262626;" transform="translate(49.067891 208.928105)scale(0.121 -0.121)">
       <use xlink:href="#DejaVuSans-4d"/>
       <use x="86.279297" xlink:href="#DejaVuSans-61"/>
       <use x="147.558594" xlink:href="#DejaVuSans-79"/>
      </g>
     </g>
    </g>
    <g id="ytick_6">
     <g id="text_6">
      <!-- June -->
      <g style="fill:#262626;" transform="translate(47.733109 245.888105)scale(0.121 -0.121)">
       <use xlink:href="#DejaVuSans-4a"/>
       <use x="29.492188" xlink:href="#DejaVuSans-75"/>
       <use x="92.871094" xlink:href="#DejaVuSans-6e"/>
       <use x="156.25" xlink:href="#DejaVuSans-65"/>
      </g>
     </g>
    </g>
    <g id="ytick_7">
     <g id="text_7">
      <!-- July -->
      <g style="fill:#262626;" transform="translate(52.323547 282.848105)scale(0.121 -0.121)">
       <use xlink:href="#DejaVuSans-4a"/>
       <use x="29.492188" xlink:href="#DejaVuSans-75"/>
       <use x="92.871094" xlink:href="#DejaVuSans-6c"/>
       <use x="120.654297" xlink:href="#DejaVuSans-79"/>
      </g>
     </g>
    </g>
    <g id="ytick_8">
     <g id="text_8">
      <!-- August -->
      <g style="fill:#262626;" transform="translate(31.742203 319.808105)scale(0.121 -0.121)">
       <defs>
        <path d="M 2906 1791 
Q 2906 2416 2648 2759 
Q 2391 3103 1925 3103 
Q 1463 3103 1205 2759 
Q 947 2416 947 1791 
Q 947 1169 1205 825 
Q 1463 481 1925 481 
Q 2391 481 2648 825 
Q 2906 1169 2906 1791 
z
M 3481 434 
Q 3481 -459 3084 -895 
Q 2688 -1331 1869 -1331 
Q 1566 -1331 1297 -1286 
Q 1028 -1241 775 -1147 
L 775 -588 
Q 1028 -725 1275 -790 
Q 1522 -856 1778 -856 
Q 2344 -856 2625 -561 
Q 2906 -266 2906 331 
L 2906 616 
Q 2728 306 2450 153 
Q 2172 0 1784 0 
Q 1141 0 747 490 
Q 353 981 353 1791 
Q 353 2603 747 3093 
Q 1141 3584 1784 3584 
Q 2172 3584 2450 3431 
Q 2728 3278 2906 2969 
L 2906 3500 
L 3481 3500 
L 3481 434 
z
" id="DejaVuSans-67" transform="scale(0.015625)"/>
        <path d="M 2834 3397 
L 2834 2853 
Q 2591 2978 2328 3040 
Q 2066 3103 1784 3103 
Q 1356 3103 1142 2972 
Q 928 2841 928 2578 
Q 928 2378 1081 2264 
Q 1234 2150 1697 2047 
L 1894 2003 
Q 2506 1872 2764 1633 
Q 3022 1394 3022 966 
Q 3022 478 2636 193 
Q 2250 -91 1575 -91 
Q 1294 -91 989 -36 
Q 684 19 347 128 
L 347 722 
Q 666 556 975 473 
Q 1284 391 1588 391 
Q 1994 391 2212 530 
Q 2431 669 2431 922 
Q 2431 1156 2273 1281 
Q 2116 1406 1581 1522 
L 1381 1569 
Q 847 1681 609 1914 
Q 372 2147 372 2553 
Q 372 3047 722 3315 
Q 1072 3584 1716 3584 
Q 2034 3584 2315 3537 
Q 2597 3491 2834 3397 
z
" id="DejaVuSans-73" transform="scale(0.015625)"/>
        <path d="M 1172 4494 
L 1172 3500 
L 2356 3500 
L 2356 3053 
L 1172 3053 
L 1172 1153 
Q 1172 725 1289 603 
Q 1406 481 1766 481 
L 2356 481 
L 2356 0 
L 1766 0 
Q 1100 0 847 248 
Q 594 497 594 1153 
L 594 3053 
L 172 3053 
L 172 3500 
L 594 3500 
L 594 4494 
L 1172 4494 
z
" id="DejaVuSans-74" transform="scale(0.015625)"/>
       </defs>
       <use xlink:href="#DejaVuSans-41"/>
       <use x="68.408203" xlink:href="#DejaVuSans-75"/>
       <use x="131.787109" xlink:href="#DejaVuSans-67"/>
       <use x="195.263672" xlink:href="#DejaVuSans-75"/>
       <use x="258.642578" xlink:href="#DejaVuSans-73"/>
       <use x="310.742188" xlink:href="#DejaVuSans-74"/>
      </g>
     </g>
    </g>
    <g id="ytick_9">
     <g id="text_9">
      <!-- September -->
      <g style="fill:#262626;" transform="translate(7.2 356.768105)scale(0.121 -0.121)">
       <defs>
        <path d="M 3425 4513 
L 3425 3897 
Q 3066 4069 2747 4153 
Q 2428 4238 2131 4238 
Q 1616 4238 1336 4038 
Q 1056 3838 1056 3469 
Q 1056 3159 1242 3001 
Q 1428 2844 1947 2747 
L 2328 2669 
Q 3034 2534 3370 2195 
Q 3706 1856 3706 1288 
Q 3706 609 3251 259 
Q 2797 -91 1919 -91 
Q 1588 -91 1214 -16 
Q 841 59 441 206 
L 441 856 
Q 825 641 1194 531 
Q 1563 422 1919 422 
Q 2459 422 2753 634 
Q 3047 847 3047 1241 
Q 3047 1584 2836 1778 
Q 2625 1972 2144 2069 
L 1759 2144 
Q 1053 2284 737 2584 
Q 422 2884 422 3419 
Q 422 4038 858 4394 
Q 1294 4750 2059 4750 
Q 2388 4750 2728 4690 
Q 3069 4631 3425 4513 
z
" id="DejaVuSans-53" transform="scale(0.015625)"/>
        <path d="M 3328 2828 
Q 3544 3216 3844 3400 
Q 4144 3584 4550 3584 
Q 5097 3584 5394 3201 
Q 5691 2819 5691 2113 
L 5691 0 
L 5113 0 
L 5113 2094 
Q 5113 2597 4934 2840 
Q 4756 3084 4391 3084 
Q 3944 3084 3684 2787 
Q 3425 2491 3425 1978 
L 3425 0 
L 2847 0 
L 2847 2094 
Q 2847 2600 2669 2842 
Q 2491 3084 2119 3084 
Q 1678 3084 1418 2786 
Q 1159 2488 1159 1978 
L 1159 0 
L 581 0 
L 581 3500 
L 1159 3500 
L 1159 2956 
Q 1356 3278 1631 3431 
Q 1906 3584 2284 3584 
Q 2666 3584 2933 3390 
Q 3200 3197 3328 2828 
z
" id="DejaVuSans-6d" transform="scale(0.015625)"/>
       </defs>
       <use xlink:href="#DejaVuSans-53"/>
       <use x="63.476562" xlink:href="#DejaVuSans-65"/>
       <use x="125" xlink:href="#DejaVuSans-70"/>
       <use x="188.476562" xlink:href="#DejaVuSans-74"/>
       <use x="227.685547" xlink:href="#DejaVuSans-65"/>
       <use x="289.208984" xlink:href="#DejaVuSans-6d"/>
       <use x="386.621094" xlink:href="#DejaVuSans-62"/>
       <use x="450.097656" xlink:href="#DejaVuSans-65"/>
       <use x="511.621094" xlink:href="#DejaVuSans-72"/>
      </g>
     </g>
    </g>
    <g id="ytick_10">
     <g id="text_10">
      <!-- October -->
      <g style="fill:#262626;" transform="translate(25.658172 393.728105)scale(0.121 -0.121)">
       <defs>
        <path d="M 2522 4238 
Q 1834 4238 1429 3725 
Q 1025 3213 1025 2328 
Q 1025 1447 1429 934 
Q 1834 422 2522 422 
Q 3209 422 3611 934 
Q 4013 1447 4013 2328 
Q 4013 3213 3611 3725 
Q 3209 4238 2522 4238 
z
M 2522 4750 
Q 3503 4750 4090 4092 
Q 4678 3434 4678 2328 
Q 4678 1225 4090 567 
Q 3503 -91 2522 -91 
Q 1538 -91 948 565 
Q 359 1222 359 2328 
Q 359 3434 948 4092 
Q 1538 4750 2522 4750 
z
" id="DejaVuSans-4f" transform="scale(0.015625)"/>
        <path d="M 1959 3097 
Q 1497 3097 1228 2736 
Q 959 2375 959 1747 
Q 959 1119 1226 758 
Q 1494 397 1959 397 
Q 2419 397 2687 759 
Q 2956 1122 2956 1747 
Q 2956 2369 2687 2733 
Q 2419 3097 1959 3097 
z
M 1959 3584 
Q 2709 3584 3137 3096 
Q 3566 2609 3566 1747 
Q 3566 888 3137 398 
Q 2709 -91 1959 -91 
Q 1206 -91 779 398 
Q 353 888 353 1747 
Q 353 2609 779 3096 
Q 1206 3584 1959 3584 
z
" id="DejaVuSans-6f" transform="scale(0.015625)"/>
       </defs>
       <use xlink:href="#DejaVuSans-4f"/>
       <use x="78.710938" xlink:href="#DejaVuSans-63"/>
       <use x="133.691406" xlink:href="#DejaVuSans-74"/>
       <use x="172.900391" xlink:href="#DejaVuSans-6f"/>
       <use x="234.082031" xlink:href="#DejaVuSans-62"/>
       <use x="297.558594" xlink:href="#DejaVuSans-65"/>
       <use x="359.082031" xlink:href="#DejaVuSans-72"/>
      </g>
     </g>
    </g>
    <g id="ytick_11">
     <g id="text_11">
      <!-- November -->
      <g style="fill:#262626;" transform="translate(11.134391 430.688105)scale(0.121 -0.121)">
       <defs>
        <path d="M 628 4666 
L 1478 4666 
L 3547 763 
L 3547 4666 
L 4159 4666 
L 4159 0 
L 3309 0 
L 1241 3903 
L 1241 0 
L 628 0 
L 628 4666 
z
" id="DejaVuSans-4e" transform="scale(0.015625)"/>
        <path d="M 191 3500 
L 800 3500 
L 1894 563 
L 2988 3500 
L 3597 3500 
L 2284 0 
L 1503 0 
L 191 3500 
z
" id="DejaVuSans-76" transform="scale(0.015625)"/>
       </defs>
       <use xlink:href="#DejaVuSans-4e"/>
       <use x="74.804688" xlink:href="#DejaVuSans-6f"/>
       <use x="135.986328" xlink:href="#DejaVuSans-76"/>
       <use x="195.166016" xlink:href="#DejaVuSans-65"/>
       <use x="256.689453" xlink:href="#DejaVuSans-6d"/>
       <use x="354.101562" xlink:href="#DejaVuSans-62"/>
       <use x="417.578125" xlink:href="#DejaVuSans-65"/>
       <use x="479.101562" xlink:href="#DejaVuSans-72"/>
      </g>
     </g>
    </g>
    <g id="ytick_12">
     <g id="text_12">
      <!-- December -->
      <g style="fill:#262626;" transform="translate(11.336688 467.648105)scale(0.121 -0.121)">
       <defs>
        <path d="M 1259 4147 
L 1259 519 
L 2022 519 
Q 2988 519 3436 956 
Q 3884 1394 3884 2338 
Q 3884 3275 3436 3711 
Q 2988 4147 2022 4147 
L 1259 4147 
z
M 628 4666 
L 1925 4666 
Q 3281 4666 3915 4102 
Q 4550 3538 4550 2338 
Q 4550 1131 3912 565 
Q 3275 0 1925 0 
L 628 0 
L 628 4666 
z
" id="DejaVuSans-44" transform="scale(0.015625)"/>
       </defs>
       <use xlink:href="#DejaVuSans-44"/>
       <use x="77.001953" xlink:href="#DejaVuSans-65"/>
       <use x="138.525391" xlink:href="#DejaVuSans-63"/>
       <use x="193.505859" xlink:href="#DejaVuSans-65"/>
       <use x="255.029297" xlink:href="#DejaVuSans-6d"/>
       <use x="352.441406" xlink:href="#DejaVuSans-62"/>
       <use x="415.917969" xlink:href="#DejaVuSans-65"/>
       <use x="477.441406" xlink:href="#DejaVuSans-72"/>
      </g>
     </g>
    </g>
   </g>
   <g id="patch_3">
    <path clip-path="url(#pee60fdaec1)" d="M 55.807577 41.70705 
L 366.585695 41.70705 
L 366.585695 71.27505 
L 55.807577 71.27505 
z
" style="fill:#a3c3d7;stroke:#ffffff;stroke-linejoin:miter;"/>
   </g>
   <g id="patch_4">
    <path clip-path="url(#pee60fdaec1)" d="M 55.807577 78.66705 
L 345.550125 78.66705 
L 345.550125 108.23505 
L 55.807577 108.23505 
z
" style="fill:#92b7d0;stroke:#ffffff;stroke-linejoin:miter;"/>
   </g>
   <g id="patch_5">
    <path clip-path="url(#pee60fdaec1)" d="M 55.807577 115.62705 
L 380.764034 115.62705 
L 380.764034 145.19505 
L 55.807577 145.19505 
z
" style="fill:#81acc9;stroke:#ffffff;stroke-linejoin:miter;"/>
   </g>
   <g id="patch_6">
    <path clip-path="url(#pee60fdaec1)" d="M 55.807577 152.58705 
L 367.599558 152.58705 
L 367.599558 182.15505 
L 55.807577 182.15505 
z
" style="fill:#71a1c1;stroke:#ffffff;stroke-linejoin:miter;"/>
   </g>
   <g id="patch_7">
    <path clip-path="url(#pee60fdaec1)" d="M 55.807577 189.54705 
L 384.033395 189.54705 
L 384.033395 219.11505 
L 55.807577 219.11505 
z
" style="fill:#6195ba;stroke:#ffffff;stroke-linejoin:miter;"/>
   </g>
   <g id="patch_8">
    <path clip-path="url(#pee60fdaec1)" d="M 55.807577 226.50705 
L 377.780778 226.50705 
L 377.780778 256.07505 
L 55.807577 256.07505 
z
" style="fill:#508ab3;stroke:#ffffff;stroke-linejoin:miter;"/>
   </g>
   <g id="patch_9">
    <path clip-path="url(#pee60fdaec1)" d="M 55.807577 263.46705 
L 396.638626 263.46705 
L 396.638626 293.03505 
L 55.807577 293.03505 
z
" style="fill:#477ea6;stroke:#ffffff;stroke-linejoin:miter;"/>
   </g>
   <g id="patch_10">
    <path clip-path="url(#pee60fdaec1)" d="M 55.807577 300.42705 
L 401.119066 300.42705 
L 401.119066 329.99505 
L 55.807577 329.99505 
z
" style="fill:#437192;stroke:#ffffff;stroke-linejoin:miter;"/>
   </g>
   <g id="patch_11">
    <path clip-path="url(#pee60fdaec1)" d="M 55.807577 337.38705 
L 388.328654 337.38705 
L 388.328654 366.95505 
L 55.807577 366.95505 
z
" style="fill:#40657f;stroke:#ffffff;stroke-linejoin:miter;"/>
   </g>
   <g id="patch_12">
    <path clip-path="url(#pee60fdaec1)" d="M 55.807577 374.34705 
L 383.217675 374.34705 
L 383.217675 403.91505 
L 55.807577 403.91505 
z
" style="fill:#3d596c;stroke:#ffffff;stroke-linejoin:miter;"/>
   </g>
   <g id="patch_13">
    <path clip-path="url(#pee60fdaec1)" d="M 55.807577 411.30705 
L 364.643152 411.30705 
L 364.643152 440.87505 
L 55.807577 440.87505 
z
" style="fill:#394c59;stroke:#ffffff;stroke-linejoin:miter;"/>
   </g>
   <g id="patch_14">
    <path clip-path="url(#pee60fdaec1)" d="M 55.807577 448.26705 
L 367.88381 448.26705 
L 367.88381 477.83505 
L 55.807577 477.83505 
z
" style="fill:#363f46;stroke:#ffffff;stroke-linejoin:miter;"/>
   </g>
   <g id="text_13">
    <!-- 335.65K -->
    <g style="fill:#262626;" transform="translate(370.03881 59.8023)scale(0.12 -0.12)">
     <defs>
      <path d="M 2981 2516 
Q 3453 2394 3698 2092 
Q 3944 1791 3944 1325 
Q 3944 631 3412 270 
Q 2881 -91 1863 -91 
Q 1503 -91 1142 -33 
Q 781 25 428 141 
L 428 1069 
Q 766 900 1098 814 
Q 1431 728 1753 728 
Q 2231 728 2486 893 
Q 2741 1059 2741 1369 
Q 2741 1688 2480 1852 
Q 2219 2016 1709 2016 
L 1228 2016 
L 1228 2791 
L 1734 2791 
Q 2188 2791 2409 2933 
Q 2631 3075 2631 3366 
Q 2631 3634 2415 3781 
Q 2200 3928 1806 3928 
Q 1516 3928 1219 3862 
Q 922 3797 628 3669 
L 628 4550 
Q 984 4650 1334 4700 
Q 1684 4750 2022 4750 
Q 2931 4750 3382 4451 
Q 3834 4153 3834 3553 
Q 3834 3144 3618 2883 
Q 3403 2622 2981 2516 
z
" id="DejaVuSans-Bold-33" transform="scale(0.015625)"/>
      <path d="M 678 4666 
L 3669 4666 
L 3669 3781 
L 1638 3781 
L 1638 3059 
Q 1775 3097 1914 3117 
Q 2053 3138 2203 3138 
Q 3056 3138 3531 2711 
Q 4006 2284 4006 1522 
Q 4006 766 3489 337 
Q 2972 -91 2053 -91 
Q 1656 -91 1267 -14 
Q 878 63 494 219 
L 494 1166 
Q 875 947 1217 837 
Q 1559 728 1863 728 
Q 2300 728 2551 942 
Q 2803 1156 2803 1522 
Q 2803 1891 2551 2103 
Q 2300 2316 1863 2316 
Q 1603 2316 1309 2248 
Q 1016 2181 678 2041 
L 678 4666 
z
" id="DejaVuSans-Bold-35" transform="scale(0.015625)"/>
      <path d="M 653 1209 
L 1778 1209 
L 1778 0 
L 653 0 
L 653 1209 
z
" id="DejaVuSans-Bold-2e" transform="scale(0.015625)"/>
      <path d="M 2316 2303 
Q 2000 2303 1842 2098 
Q 1684 1894 1684 1484 
Q 1684 1075 1842 870 
Q 2000 666 2316 666 
Q 2634 666 2792 870 
Q 2950 1075 2950 1484 
Q 2950 1894 2792 2098 
Q 2634 2303 2316 2303 
z
M 3803 4544 
L 3803 3681 
Q 3506 3822 3243 3889 
Q 2981 3956 2731 3956 
Q 2194 3956 1894 3657 
Q 1594 3359 1544 2772 
Q 1750 2925 1990 3001 
Q 2231 3078 2516 3078 
Q 3231 3078 3670 2659 
Q 4109 2241 4109 1563 
Q 4109 813 3618 361 
Q 3128 -91 2303 -91 
Q 1394 -91 895 523 
Q 397 1138 397 2266 
Q 397 3422 980 4083 
Q 1563 4744 2578 4744 
Q 2900 4744 3203 4694 
Q 3506 4644 3803 4544 
z
" id="DejaVuSans-Bold-36" transform="scale(0.015625)"/>
      <path d="M 588 4666 
L 1791 4666 
L 1791 2963 
L 3525 4666 
L 4922 4666 
L 2675 2456 
L 5153 0 
L 3647 0 
L 1791 1838 
L 1791 0 
L 588 0 
L 588 4666 
z
" id="DejaVuSans-Bold-4b" transform="scale(0.015625)"/>
     </defs>
     <use xlink:href="#DejaVuSans-Bold-33"/>
     <use x="69.580078" xlink:href="#DejaVuSans-Bold-33"/>
     <use x="139.160156" xlink:href="#DejaVuSans-Bold-35"/>
     <use x="208.740234" xlink:href="#DejaVuSans-Bold-2e"/>
     <use x="246.728516" xlink:href="#DejaVuSans-Bold-36"/>
     <use x="316.308594" xlink:href="#DejaVuSans-Bold-35"/>
     <use x="385.888672" xlink:href="#DejaVuSans-Bold-4b"/>
    </g>
   </g>
   <g id="text_14">
    <!-- 312.93K -->
    <g style="fill:#262626;" transform="translate(349.00324 96.7623)scale(0.12 -0.12)">
     <defs>
      <path d="M 750 831 
L 1813 831 
L 1813 3847 
L 722 3622 
L 722 4441 
L 1806 4666 
L 2950 4666 
L 2950 831 
L 4013 831 
L 4013 0 
L 750 0 
L 750 831 
z
" id="DejaVuSans-Bold-31" transform="scale(0.015625)"/>
      <path d="M 1844 884 
L 3897 884 
L 3897 0 
L 506 0 
L 506 884 
L 2209 2388 
Q 2438 2594 2547 2791 
Q 2656 2988 2656 3200 
Q 2656 3528 2436 3728 
Q 2216 3928 1850 3928 
Q 1569 3928 1234 3808 
Q 900 3688 519 3450 
L 519 4475 
Q 925 4609 1322 4679 
Q 1719 4750 2100 4750 
Q 2938 4750 3402 4381 
Q 3866 4013 3866 3353 
Q 3866 2972 3669 2642 
Q 3472 2313 2841 1759 
L 1844 884 
z
" id="DejaVuSans-Bold-32" transform="scale(0.015625)"/>
      <path d="M 641 103 
L 641 966 
Q 928 831 1190 764 
Q 1453 697 1709 697 
Q 2247 697 2547 995 
Q 2847 1294 2900 1881 
Q 2688 1725 2447 1647 
Q 2206 1569 1925 1569 
Q 1209 1569 770 1986 
Q 331 2403 331 3084 
Q 331 3838 820 4291 
Q 1309 4744 2131 4744 
Q 3044 4744 3544 4128 
Q 4044 3513 4044 2388 
Q 4044 1231 3459 570 
Q 2875 -91 1856 -91 
Q 1528 -91 1228 -42 
Q 928 6 641 103 
z
M 2125 2350 
Q 2441 2350 2600 2554 
Q 2759 2759 2759 3169 
Q 2759 3575 2600 3781 
Q 2441 3988 2125 3988 
Q 1809 3988 1650 3781 
Q 1491 3575 1491 3169 
Q 1491 2759 1650 2554 
Q 1809 2350 2125 2350 
z
" id="DejaVuSans-Bold-39" transform="scale(0.015625)"/>
     </defs>
     <use xlink:href="#DejaVuSans-Bold-33"/>
     <use x="69.580078" xlink:href="#DejaVuSans-Bold-31"/>
     <use x="139.160156" xlink:href="#DejaVuSans-Bold-32"/>
     <use x="208.740234" xlink:href="#DejaVuSans-Bold-2e"/>
     <use x="246.728516" xlink:href="#DejaVuSans-Bold-39"/>
     <use x="316.308594" xlink:href="#DejaVuSans-Bold-33"/>
     <use x="385.888672" xlink:href="#DejaVuSans-Bold-4b"/>
    </g>
   </g>
   <g id="text_15">
    <!-- 350.96K -->
    <g style="fill:#262626;" transform="translate(384.217149 133.7223)scale(0.12 -0.12)">
     <defs>
      <path d="M 2944 2338 
Q 2944 3213 2780 3570 
Q 2616 3928 2228 3928 
Q 1841 3928 1675 3570 
Q 1509 3213 1509 2338 
Q 1509 1453 1675 1090 
Q 1841 728 2228 728 
Q 2613 728 2778 1090 
Q 2944 1453 2944 2338 
z
M 4147 2328 
Q 4147 1169 3647 539 
Q 3147 -91 2228 -91 
Q 1306 -91 806 539 
Q 306 1169 306 2328 
Q 306 3491 806 4120 
Q 1306 4750 2228 4750 
Q 3147 4750 3647 4120 
Q 4147 3491 4147 2328 
z
" id="DejaVuSans-Bold-30" transform="scale(0.015625)"/>
     </defs>
     <use xlink:href="#DejaVuSans-Bold-33"/>
     <use x="69.580078" xlink:href="#DejaVuSans-Bold-35"/>
     <use x="139.160156" xlink:href="#DejaVuSans-Bold-30"/>
     <use x="208.740234" xlink:href="#DejaVuSans-Bold-2e"/>
     <use x="246.728516" xlink:href="#DejaVuSans-Bold-39"/>
     <use x="316.308594" xlink:href="#DejaVuSans-Bold-36"/>
     <use x="385.888672" xlink:href="#DejaVuSans-Bold-4b"/>
    </g>
   </g>
   <g id="text_16">
    <!-- 336.74K -->
    <g style="fill:#262626;" transform="translate(371.052673 170.6823)scale(0.12 -0.12)">
     <defs>
      <path d="M 428 4666 
L 3944 4666 
L 3944 3988 
L 2125 0 
L 953 0 
L 2675 3781 
L 428 3781 
L 428 4666 
z
" id="DejaVuSans-Bold-37" transform="scale(0.015625)"/>
      <path d="M 2356 3675 
L 1038 1722 
L 2356 1722 
L 2356 3675 
z
M 2156 4666 
L 3494 4666 
L 3494 1722 
L 4159 1722 
L 4159 850 
L 3494 850 
L 3494 0 
L 2356 0 
L 2356 850 
L 288 850 
L 288 1881 
L 2156 4666 
z
" id="DejaVuSans-Bold-34" transform="scale(0.015625)"/>
     </defs>
     <use xlink:href="#DejaVuSans-Bold-33"/>
     <use x="69.580078" xlink:href="#DejaVuSans-Bold-33"/>
     <use x="139.160156" xlink:href="#DejaVuSans-Bold-36"/>
     <use x="208.740234" xlink:href="#DejaVuSans-Bold-2e"/>
     <use x="246.728516" xlink:href="#DejaVuSans-Bold-37"/>
     <use x="316.308594" xlink:href="#DejaVuSans-Bold-34"/>
     <use x="385.888672" xlink:href="#DejaVuSans-Bold-4b"/>
    </g>
   </g>
   <g id="text_17">
    <!-- 354.49K -->
    <g style="fill:#262626;" transform="translate(387.486509 207.6423)scale(0.12 -0.12)">
     <use xlink:href="#DejaVuSans-Bold-33"/>
     <use x="69.580078" xlink:href="#DejaVuSans-Bold-35"/>
     <use x="139.160156" xlink:href="#DejaVuSans-Bold-34"/>
     <use x="208.740234" xlink:href="#DejaVuSans-Bold-2e"/>
     <use x="246.728516" xlink:href="#DejaVuSans-Bold-34"/>
     <use x="316.308594" xlink:href="#DejaVuSans-Bold-39"/>
     <use x="385.888672" xlink:href="#DejaVuSans-Bold-4b"/>
    </g>
   </g>
   <g id="text_18">
    <!-- 347.74K -->
    <g style="fill:#262626;" transform="translate(381.233892 244.6023)scale(0.12 -0.12)">
     <use xlink:href="#DejaVuSans-Bold-33"/>
     <use x="69.580078" xlink:href="#DejaVuSans-Bold-34"/>
     <use x="139.160156" xlink:href="#DejaVuSans-Bold-37"/>
     <use x="208.740234" xlink:href="#DejaVuSans-Bold-2e"/>
     <use x="246.728516" xlink:href="#DejaVuSans-Bold-37"/>
     <use x="316.308594" xlink:href="#DejaVuSans-Bold-34"/>
     <use x="385.888672" xlink:href="#DejaVuSans-Bold-4b"/>
    </g>
   </g>
   <g id="text_19">
    <!-- 368.11K -->
    <g style="fill:#262626;" transform="translate(400.091741 281.5623)scale(0.12 -0.12)">
     <defs>
      <path d="M 2228 2088 
Q 1891 2088 1709 1903 
Q 1528 1719 1528 1375 
Q 1528 1031 1709 848 
Q 1891 666 2228 666 
Q 2563 666 2741 848 
Q 2919 1031 2919 1375 
Q 2919 1722 2741 1905 
Q 2563 2088 2228 2088 
z
M 1350 2484 
Q 925 2613 709 2878 
Q 494 3144 494 3541 
Q 494 4131 934 4440 
Q 1375 4750 2228 4750 
Q 3075 4750 3515 4442 
Q 3956 4134 3956 3541 
Q 3956 3144 3739 2878 
Q 3522 2613 3097 2484 
Q 3572 2353 3814 2058 
Q 4056 1763 4056 1313 
Q 4056 619 3595 264 
Q 3134 -91 2228 -91 
Q 1319 -91 855 264 
Q 391 619 391 1313 
Q 391 1763 633 2058 
Q 875 2353 1350 2484 
z
M 1631 3419 
Q 1631 3141 1786 2991 
Q 1941 2841 2228 2841 
Q 2509 2841 2662 2991 
Q 2816 3141 2816 3419 
Q 2816 3697 2662 3845 
Q 2509 3994 2228 3994 
Q 1941 3994 1786 3844 
Q 1631 3694 1631 3419 
z
" id="DejaVuSans-Bold-38" transform="scale(0.015625)"/>
     </defs>
     <use xlink:href="#DejaVuSans-Bold-33"/>
     <use x="69.580078" xlink:href="#DejaVuSans-Bold-36"/>
     <use x="139.160156" xlink:href="#DejaVuSans-Bold-38"/>
     <use x="208.740234" xlink:href="#DejaVuSans-Bold-2e"/>
     <use x="246.728516" xlink:href="#DejaVuSans-Bold-31"/>
     <use x="316.308594" xlink:href="#DejaVuSans-Bold-31"/>
     <use x="385.888672" xlink:href="#DejaVuSans-Bold-4b"/>
    </g>
   </g>
   <g id="text_20">
    <!-- 372.95K -->
    <g style="fill:#262626;" transform="translate(404.572181 318.5223)scale(0.12 -0.12)">
     <use xlink:href="#DejaVuSans-Bold-33"/>
     <use x="69.580078" xlink:href="#DejaVuSans-Bold-37"/>
     <use x="139.160156" xlink:href="#DejaVuSans-Bold-32"/>
     <use x="208.740234" xlink:href="#DejaVuSans-Bold-2e"/>
     <use x="246.728516" xlink:href="#DejaVuSans-Bold-39"/>
     <use x="316.308594" xlink:href="#DejaVuSans-Bold-35"/>
     <use x="385.888672" xlink:href="#DejaVuSans-Bold-4b"/>
    </g>
   </g>
   <g id="text_21">
    <!-- 359.13K -->
    <g style="fill:#262626;" transform="translate(391.781769 355.4823)scale(0.12 -0.12)">
     <use xlink:href="#DejaVuSans-Bold-33"/>
     <use x="69.580078" xlink:href="#DejaVuSans-Bold-35"/>
     <use x="139.160156" xlink:href="#DejaVuSans-Bold-39"/>
     <use x="208.740234" xlink:href="#DejaVuSans-Bold-2e"/>
     <use x="246.728516" xlink:href="#DejaVuSans-Bold-31"/>
     <use x="316.308594" xlink:href="#DejaVuSans-Bold-33"/>
     <use x="385.888672" xlink:href="#DejaVuSans-Bold-4b"/>
    </g>
   </g>
   <g id="text_22">
    <!-- 353.61K -->
    <g style="fill:#262626;" transform="translate(386.67079 392.4423)scale(0.12 -0.12)">
     <use xlink:href="#DejaVuSans-Bold-33"/>
     <use x="69.580078" xlink:href="#DejaVuSans-Bold-35"/>
     <use x="139.160156" xlink:href="#DejaVuSans-Bold-33"/>
     <use x="208.740234" xlink:href="#DejaVuSans-Bold-2e"/>
     <use x="246.728516" xlink:href="#DejaVuSans-Bold-36"/>
     <use x="316.308594" xlink:href="#DejaVuSans-Bold-31"/>
     <use x="385.888672" xlink:href="#DejaVuSans-Bold-4b"/>
    </g>
   </g>
   <g id="text_23">
    <!-- 333.55K -->
    <g style="fill:#262626;" transform="translate(368.096267 429.4023)scale(0.12 -0.12)">
     <use xlink:href="#DejaVuSans-Bold-33"/>
     <use x="69.580078" xlink:href="#DejaVuSans-Bold-33"/>
     <use x="139.160156" xlink:href="#DejaVuSans-Bold-33"/>
     <use x="208.740234" xlink:href="#DejaVuSans-Bold-2e"/>
     <use x="246.728516" xlink:href="#DejaVuSans-Bold-35"/>
     <use x="316.308594" xlink:href="#DejaVuSans-Bold-35"/>
     <use x="385.888672" xlink:href="#DejaVuSans-Bold-4b"/>
    </g>
   </g>
   <g id="text_24">
    <!-- 337.05K -->
    <g style="fill:#262626;" transform="translate(371.336925 466.3623)scale(0.12 -0.12)">
     <use xlink:href="#DejaVuSans-Bold-33"/>
     <use x="69.580078" xlink:href="#DejaVuSans-Bold-33"/>
     <use x="139.160156" xlink:href="#DejaVuSans-Bold-37"/>
     <use x="208.740234" xlink:href="#DejaVuSans-Bold-2e"/>
     <use x="246.728516" xlink:href="#DejaVuSans-Bold-30"/>
     <use x="316.308594" xlink:href="#DejaVuSans-Bold-35"/>
     <use x="385.888672" xlink:href="#DejaVuSans-Bold-4b"/>
    </g>
   </g>
   <g id="text_25">
    <!-- Month Babies Were Born -->
    <g style="fill:#262626;" transform="translate(83.584641 17.229937)scale(0.132 -0.132)">
     <defs>
      <path id="DejaVuSans-20" transform="scale(0.015625)"/>
      <path d="M 1259 2228 
L 1259 519 
L 2272 519 
Q 2781 519 3026 730 
Q 3272 941 3272 1375 
Q 3272 1813 3026 2020 
Q 2781 2228 2272 2228 
L 1259 2228 
z
M 1259 4147 
L 1259 2741 
L 2194 2741 
Q 2656 2741 2882 2914 
Q 3109 3088 3109 3444 
Q 3109 3797 2882 3972 
Q 2656 4147 2194 4147 
L 1259 4147 
z
M 628 4666 
L 2241 4666 
Q 2963 4666 3353 4366 
Q 3744 4066 3744 3513 
Q 3744 3084 3544 2831 
Q 3344 2578 2956 2516 
Q 3422 2416 3680 2098 
Q 3938 1781 3938 1306 
Q 3938 681 3513 340 
Q 3088 0 2303 0 
L 628 0 
L 628 4666 
z
" id="DejaVuSans-42" transform="scale(0.015625)"/>
      <path d="M 213 4666 
L 850 4666 
L 1831 722 
L 2809 4666 
L 3519 4666 
L 4500 722 
L 5478 4666 
L 6119 4666 
L 4947 0 
L 4153 0 
L 3169 4050 
L 2175 0 
L 1381 0 
L 213 4666 
z
" id="DejaVuSans-57" transform="scale(0.015625)"/>
     </defs>
     <use xlink:href="#DejaVuSans-4d"/>
     <use x="86.279297" xlink:href="#DejaVuSans-6f"/>
     <use x="147.460938" xlink:href="#DejaVuSans-6e"/>
     <use x="210.839844" xlink:href="#DejaVuSans-74"/>
     <use x="250.048828" xlink:href="#DejaVuSans-68"/>
     <use x="313.427734" xlink:href="#DejaVuSans-20"/>
     <use x="345.214844" xlink:href="#DejaVuSans-42"/>
     <use x="413.818359" xlink:href="#DejaVuSans-61"/>
     <use x="475.097656" xlink:href="#DejaVuSans-62"/>
     <use x="538.574219" xlink:href="#DejaVuSans-69"/>
     <use x="566.357422" xlink:href="#DejaVuSans-65"/>
     <use x="627.880859" xlink:href="#DejaVuSans-73"/>
     <use x="679.980469" xlink:href="#DejaVuSans-20"/>
     <use x="711.767578" xlink:href="#DejaVuSans-57"/>
     <use x="804.769531" xlink:href="#DejaVuSans-65"/>
     <use x="866.292969" xlink:href="#DejaVuSans-72"/>
     <use x="905.15625" xlink:href="#DejaVuSans-65"/>
     <use x="966.679688" xlink:href="#DejaVuSans-20"/>
     <use x="998.466797" xlink:href="#DejaVuSans-42"/>
     <use x="1067.070312" xlink:href="#DejaVuSans-6f"/>
     <use x="1128.251953" xlink:href="#DejaVuSans-72"/>
     <use x="1167.615234" xlink:href="#DejaVuSans-6e"/>
    </g>
    <!-- (for babies born in 1990) -->
    <g style="fill:#262626;" transform="translate(83.584641 32.01105)scale(0.132 -0.132)">
     <defs>
      <path d="M 1984 4856 
Q 1566 4138 1362 3434 
Q 1159 2731 1159 2009 
Q 1159 1288 1364 580 
Q 1569 -128 1984 -844 
L 1484 -844 
Q 1016 -109 783 600 
Q 550 1309 550 2009 
Q 550 2706 781 3412 
Q 1013 4119 1484 4856 
L 1984 4856 
z
" id="DejaVuSans-28" transform="scale(0.015625)"/>
      <path d="M 2375 4863 
L 2375 4384 
L 1825 4384 
Q 1516 4384 1395 4259 
Q 1275 4134 1275 3809 
L 1275 3500 
L 2222 3500 
L 2222 3053 
L 1275 3053 
L 1275 0 
L 697 0 
L 697 3053 
L 147 3053 
L 147 3500 
L 697 3500 
L 697 3744 
Q 697 4328 969 4595 
Q 1241 4863 1831 4863 
L 2375 4863 
z
" id="DejaVuSans-66" transform="scale(0.015625)"/>
      <path d="M 794 531 
L 1825 531 
L 1825 4091 
L 703 3866 
L 703 4441 
L 1819 4666 
L 2450 4666 
L 2450 531 
L 3481 531 
L 3481 0 
L 794 0 
L 794 531 
z
" id="DejaVuSans-31" transform="scale(0.015625)"/>
      <path d="M 703 97 
L 703 672 
Q 941 559 1184 500 
Q 1428 441 1663 441 
Q 2288 441 2617 861 
Q 2947 1281 2994 2138 
Q 2813 1869 2534 1725 
Q 2256 1581 1919 1581 
Q 1219 1581 811 2004 
Q 403 2428 403 3163 
Q 403 3881 828 4315 
Q 1253 4750 1959 4750 
Q 2769 4750 3195 4129 
Q 3622 3509 3622 2328 
Q 3622 1225 3098 567 
Q 2575 -91 1691 -91 
Q 1453 -91 1209 -44 
Q 966 3 703 97 
z
M 1959 2075 
Q 2384 2075 2632 2365 
Q 2881 2656 2881 3163 
Q 2881 3666 2632 3958 
Q 2384 4250 1959 4250 
Q 1534 4250 1286 3958 
Q 1038 3666 1038 3163 
Q 1038 2656 1286 2365 
Q 1534 2075 1959 2075 
z
" id="DejaVuSans-39" transform="scale(0.015625)"/>
      <path d="M 2034 4250 
Q 1547 4250 1301 3770 
Q 1056 3291 1056 2328 
Q 1056 1369 1301 889 
Q 1547 409 2034 409 
Q 2525 409 2770 889 
Q 3016 1369 3016 2328 
Q 3016 3291 2770 3770 
Q 2525 4250 2034 4250 
z
M 2034 4750 
Q 2819 4750 3233 4129 
Q 3647 3509 3647 2328 
Q 3647 1150 3233 529 
Q 2819 -91 2034 -91 
Q 1250 -91 836 529 
Q 422 1150 422 2328 
Q 422 3509 836 4129 
Q 1250 4750 2034 4750 
z
" id="DejaVuSans-30" transform="scale(0.015625)"/>
      <path d="M 513 4856 
L 1013 4856 
Q 1481 4119 1714 3412 
Q 1947 2706 1947 2009 
Q 1947 1309 1714 600 
Q 1481 -109 1013 -844 
L 513 -844 
Q 928 -128 1133 580 
Q 1338 1288 1338 2009 
Q 1338 2731 1133 3434 
Q 928 4138 513 4856 
z
" id="DejaVuSans-29" transform="scale(0.015625)"/>
     </defs>
     <use xlink:href="#DejaVuSans-28"/>
     <use x="39.013672" xlink:href="#DejaVuSans-66"/>
     <use x="74.21875" xlink:href="#DejaVuSans-6f"/>
     <use x="135.400391" xlink:href="#DejaVuSans-72"/>
     <use x="176.513672" xlink:href="#DejaVuSans-20"/>
     <use x="208.300781" xlink:href="#DejaVuSans-62"/>
     <use x="271.777344" xlink:href="#DejaVuSans-61"/>
     <use x="333.056641" xlink:href="#DejaVuSans-62"/>
     <use x="396.533203" xlink:href="#DejaVuSans-69"/>
     <use x="424.316406" xlink:href="#DejaVuSans-65"/>
     <use x="485.839844" xlink:href="#DejaVuSans-73"/>
     <use x="537.939453" xlink:href="#DejaVuSans-20"/>
     <use x="569.726562" xlink:href="#DejaVuSans-62"/>
     <use x="633.203125" xlink:href="#DejaVuSans-6f"/>
     <use x="694.384766" xlink:href="#DejaVuSans-72"/>
     <use x="733.748047" xlink:href="#DejaVuSans-6e"/>
     <use x="797.126953" xlink:href="#DejaVuSans-20"/>
     <use x="828.914062" xlink:href="#DejaVuSans-69"/>
     <use x="856.697266" xlink:href="#DejaVuSans-6e"/>
     <use x="920.076172" xlink:href="#DejaVuSans-20"/>
     <use x="951.863281" xlink:href="#DejaVuSans-31"/>
     <use x="1015.486328" xlink:href="#DejaVuSans-39"/>
     <use x="1079.109375" xlink:href="#DejaVuSans-39"/>
     <use x="1142.732422" xlink:href="#DejaVuSans-30"/>
     <use x="1206.355469" xlink:href="#DejaVuSans-29"/>
    </g>
   </g>
  </g>
 </g>
 <defs>
  <clipPath id="pee60fdaec1">
   <rect height="443.52" width="334.8" x="83.584641" y="38.01105"/>
  </clipPath>
 </defs>
</svg>
